<svg width="15" height="15" viewBox="0 0 15 15" fill="none" xmlns="http://www.w3.org/2000/svg">
<path d="M13.6168 5.11401C13.5313 5.18152 12.0219 6.0471 12.0219 7.9718C12.0219 10.198 13.9425 10.9856 14 11.0051C13.9912 11.0531 13.6949 12.0837 12.9873 13.1338C12.3565 14.0579 11.6976 14.9805 10.6952 14.9805C9.69291 14.9805 9.43496 14.3879 8.27785 14.3879C7.15023 14.3879 6.74929 15 5.83245 15C4.91561 15 4.27589 14.1449 3.54035 13.0948C2.68837 11.8617 2 9.94599 2 8.12781C2 5.21152 3.86316 3.66487 5.69684 3.66487C6.67117 3.66487 7.48336 4.31593 8.09507 4.31593C8.67731 4.31593 9.58531 3.62586 10.6938 3.62586C11.1139 3.62586 12.6233 3.66487 13.6168 5.11401ZM10.1675 2.39124C10.626 1.83768 10.9503 1.06961 10.9503 0.30153C10.9503 0.19502 10.9414 0.0870087 10.9222 0C10.1764 0.0285028 9.28903 0.505551 8.75396 1.13711C8.33387 1.62316 7.94178 2.39124 7.94178 3.16982C7.94178 3.28683 7.96094 3.40384 7.96978 3.44134C8.01695 3.45034 8.0936 3.46085 8.17025 3.46085C8.83945 3.46085 9.68112 3.0048 10.1675 2.39124Z" fill="black"/>
</svg>
