<svg width="15" height="15" viewBox="0 0 15 15" fill="none" xmlns="http://www.w3.org/2000/svg">
<g clip-path="url(#clip0_3_4)">
<path d="M7.5 15C6.46569 15 5.4951 14.8039 4.58824 14.4118C3.68137 14.0245 2.8848 13.4877 2.19853 12.8015C1.51225 12.1103 0.973039 11.3137 0.580882 10.4118C0.193627 9.5049 0 8.53431 0 7.5C0 6.46569 0.193627 5.4951 0.580882 4.58824C0.973039 3.68137 1.51225 2.8848 2.19853 2.19853C2.8848 1.51225 3.68137 0.97549 4.58824 0.588235C5.4951 0.196078 6.46569 0 7.5 0C8.53431 0 9.5049 0.196078 10.4118 0.588235C11.3186 0.97549 12.1152 1.51225 12.8015 2.19853C13.4877 2.8848 14.0245 3.68137 14.4118 4.58824C14.8039 5.4951 15 6.46569 15 7.5C15 8.53431 14.8039 9.5049 14.4118 10.4118C14.0245 11.3137 13.4877 12.1103 12.8015 12.8015C12.1152 13.4877 11.3186 14.0245 10.4118 14.4118C9.5049 14.8039 8.53431 15 7.5 15ZM6.67647 11.0882C6.80392 11.0882 6.91912 11.0588 7.02206 11C7.125 10.9412 7.21569 10.8529 7.29412 10.7353L10.75 5.28676C10.7941 5.21324 10.8358 5.1348 10.875 5.05147C10.9142 4.96814 10.9338 4.8848 10.9338 4.80147C10.9338 4.6299 10.8701 4.4951 10.7426 4.39706C10.6152 4.29412 10.473 4.24265 10.3162 4.24265C10.1005 4.24265 9.92402 4.35539 9.78677 4.58088L6.64706 9.625L5.15441 7.69853C5.06127 7.57598 4.97059 7.49265 4.88235 7.44853C4.79902 7.40441 4.70343 7.38235 4.59559 7.38235C4.42892 7.38235 4.28922 7.44363 4.17647 7.56618C4.06373 7.68382 4.00735 7.82598 4.00735 7.99265C4.00735 8.07598 4.02206 8.15931 4.05147 8.24265C4.08578 8.32108 4.1299 8.39706 4.18382 8.47059L6.02941 10.7353C6.12745 10.8627 6.22794 10.9534 6.33088 11.0074C6.43382 11.0613 6.54902 11.0882 6.67647 11.0882Z" fill="black"/>
</g>
<defs>
<clipPath id="clip0_3_4">
<rect width="15" height="15" fill="white"/>
</clipPath>
</defs>
</svg>
