<svg width="90" height="50" viewBox="0 0 90 50" fill="none" xmlns="http://www.w3.org/2000/svg">
<path d="M16.6701 33.3333V0H11.6691V33.3333C11.6691 34.8654 11.3672 36.3825 10.7808 37.798C10.1944 39.2134 9.33486 40.4996 8.25128 41.5829C7.16771 42.6663 5.88132 43.5256 4.46556 44.1119C3.04981 44.6982 1.53241 45 0 45V50C2.18915 50 4.35686 49.5689 6.37938 48.7313C8.40189 47.8937 10.2396 46.6661 11.7875 45.1185C13.3355 43.5708 14.5634 41.7335 15.4012 39.7114C16.2389 37.6893 16.6701 35.522 16.6701 33.3333Z" fill="black"/>
<path d="M53.3444 16.3399C53.3444 25.3641 45.8809 33.3333 36.6742 33.3333C27.4676 33.3333 20.0041 25.3641 20.0041 16.3399C20.0041 7.31561 27.4676 0 36.6742 0C45.8809 0 53.3444 7.31561 53.3444 16.3399ZM25.0052 16.3399C25.0052 22.6569 30.2296 28.4314 36.6742 28.4314C43.1189 28.4314 48.3433 22.6569 48.3433 16.3399C48.3433 10.0229 43.1189 4.90196 36.6742 4.90196C30.2296 4.90196 25.0052 10.0229 25.0052 16.3399Z" fill="black"/>
<path fill-rule="evenodd" clip-rule="evenodd" d="M86.0066 5.95234C88.5843 8.96963 90.0003 12.8076 90 16.7758L61.66 16.778C61.6599 18.2984 61.9571 19.816 62.548 21.2424C63.6111 23.8087 65.5552 25.9114 68.0308 27.1723C70.5064 28.4332 73.3509 28.7696 76.0527 28.1209C78.7545 27.4722 81.1363 25.8811 82.7696 23.6337L86.8155 26.5722C84.4821 29.7828 81.0796 32.0558 77.2199 32.9825C73.3601 33.9092 69.2966 33.4286 65.76 31.6274C62.2235 29.8261 59.446 26.8222 57.9273 23.1562C56.4086 19.4901 56.2483 15.4023 57.4752 11.6282C58.702 7.85405 61.2356 4.6412 64.6202 2.56753C68.0047 0.493859 72.0181 -0.304543 75.9385 0.315932C79.8589 0.936407 83.429 2.93504 86.0066 5.95234ZM62.7864 11.7781C63.7524 9.74226 65.293 8.019 67.2329 6.83041C69.6021 5.37884 72.4115 4.81995 75.1558 5.25429C77.9001 5.68862 80.3991 7.08766 82.2035 9.19977C82.8762 9.98718 83.4358 10.8544 83.8732 11.7765L62.7864 11.7781Z" fill="black"/>
</svg>
